<svg id="Layer_1" data-name="Layer 1" xmlns="http://www.w3.org/2000/svg" width="120" height="120" viewBox="0 0 120 120">
  <title>heads</title>
  <g>
    <path d="M114.6,60a54.61206,54.61206,0,0,1-102,27.108,53.80039,53.80039,0,0,1-5.988-15.612A54.94484,54.94484,0,0,1,5.4,60,54.63072,54.63072,0,0,1,73.284,7.032a53.6595,53.6595,0,0,1,15.384,6.504A54.62611,54.62611,0,0,1,114.6,60Z" style="fill: #ffde50"/>
    <path d="M105,60a44.98374,44.98374,0,0,1-42.684,44.94H62.28c-.756.036-1.512.06-2.28.06a45.00313,45.00313,0,0,1-7.716-89.34h.036A44.98939,44.98939,0,0,1,105,60Z" style="fill: #f68e00"/>
    <path d="M99.6,60.6a44.99555,44.99555,0,0,1-37.284,44.34H62.28c-.756.036-1.512.06-2.28.06a45.00313,45.00313,0,0,1-7.716-89.34h.036c.756-.036,1.512-.06,2.28-.06a44.98562,44.98562,0,0,1,45,45Z" style="fill: #faa300"/>
    <path d="M99.804,22.59595l-6.78,6.78-3.096,3.096L29.376,93.024l-6.78,6.78A54.42023,54.42023,0,0,1,13.8,88.308,53.80039,53.80039,0,0,1,7.812,72.696,54.94484,54.94484,0,0,1,6.6,61.2,54.63072,54.63072,0,0,1,74.484,8.232a53.6595,53.6595,0,0,1,15.384,6.504A54.36778,54.36778,0,0,1,99.804,22.59595Z" style="fill: #fff;opacity: 0.14"/>
  </g>
	<g transform="translate(16,105.000000) scale(0.080000,-0.080000)"
fill="#000000" stroke="none">
<path d="M560 1062 c-8 -2 -33 -13 -54 -24 -29 -14 -49 -18 -78 -13 -29 5 -45
2 -66 -12 -15 -10 -32 -20 -38 -23 -18 -9 -81 -83 -96 -115 -19 -39 -41 -242
-30 -275 18 -51 37 -90 44 -90 4 0 8 -10 8 -23 0 -13 6 -32 14 -43 13 -17 14
-16 9 21 -3 27 7 87 31 184 19 79 36 144 38 146 2 1 22 12 46 24 23 12 42 26
42 31 0 21 66 38 135 36 112 -4 159 -39 170 -127 3 -24 18 -73 32 -109 33 -81
43 -144 33 -198 -7 -43 3 -59 15 -22 4 11 17 31 29 43 33 31 49 99 47 197 -2
86 -24 160 -56 184 -7 6 -15 29 -17 51 -2 32 -8 42 -30 53 -16 7 -28 19 -28
26 0 16 -48 62 -56 53 -3 -3 -17 -1 -31 4 -41 15 -97 26 -113 21z"/>
<path d="M579 688 c-10 -41 -8 -47 22 -53 17 -4 43 -2 59 5 20 8 34 9 48 1 29
-15 37 -14 22 4 -15 18 -148 56 -151 43z"/>
<path d="M390 659 c-30 -10 -59 -24 -65 -30 -7 -8 -3 -8 13 0 17 9 31 9 61 0
44 -13 84 1 79 29 -5 23 -25 24 -88 1z"/>
<path d="M605 600 c-4 -6 8 -10 27 -10 19 0 39 -5 45 -11 12 -12 53 -3 53 10
0 17 -115 27 -125 11z"/>
<path d="M334 588 c-9 -14 17 -19 52 -9 21 6 40 8 44 6 3 -2 12 1 20 6 10 6
-5 9 -48 7 -35 -2 -66 -6 -68 -10z"/>
<path d="M450 436 c0 -10 9 -16 21 -16 24 0 21 23 -4 28 -10 2 -17 -3 -17 -12z"/>
<path d="M545 441 c-3 -6 -16 -11 -27 -11 -41 0 -9 -12 37 -13 36 -2 45 1 43
13 -4 18 -43 26 -53 11z"/>
<path d="M786 363 c-6 -14 -5 -15 5 -6 7 7 10 15 7 18 -3 3 -9 -2 -12 -12z"/>
<path d="M576 328 c-12 -7 -46 -8 -93 -4 -63 5 -75 3 -80 -10 -14 -36 38 -64
58 -32 4 7 18 8 35 3 16 -5 33 -7 39 -6 5 2 19 2 30 2 11 0 30 -1 43 -1 12 0
22 -5 22 -12 0 -6 9 -3 20 7 27 24 25 39 -5 53 -32 15 -44 15 -69 0z"/>
<path d="M757 303 c-11 -18 -36 -83 -32 -83 8 0 47 82 42 87 -3 2 -7 1 -10 -4z"/>
<path d="M615 239 c-5 -8 -4 -10 3 -5 7 4 12 3 12 -2 0 -14 -51 -35 -105 -42
l-50 -6 47 -8 c63 -11 92 -2 107 30 13 28 0 57 -14 33z"/>
<path d="M686 171 c-15 -22 -36 -47 -46 -56 -24 -21 -88 -37 -96 -23 -4 6 -25
8 -52 4 -40 -5 -49 -3 -76 21 l-31 28 31 -33 c38 -41 91 -55 156 -41 38 9 56
20 89 57 39 45 64 82 56 82 -2 0 -16 -18 -31 -39z"/>
</g>
</svg>
