<svg id="Layer_1" data-name="Layer 1" xmlns="http://www.w3.org/2000/svg" width="120" height="120" viewBox="0 0 120 120">
  <title>heads</title>
  <g>
    <path d="M114.6,60a54.61206,54.61206,0,0,1-102,27.108,53.80039,53.80039,0,0,1-5.988-15.612A54.94484,54.94484,0,0,1,5.4,60,54.63072,54.63072,0,0,1,73.284,7.032a53.6595,53.6595,0,0,1,15.384,6.504A54.62611,54.62611,0,0,1,114.6,60Z" style="fill: #ffde50"/>
    <path d="M105,60a44.98374,44.98374,0,0,1-42.684,44.94H62.28c-.756.036-1.512.06-2.28.06a45.00313,45.00313,0,0,1-7.716-89.34h.036A44.98939,44.98939,0,0,1,105,60Z" style="fill: #f68e00"/>
    <path d="M99.6,60.6a44.99555,44.99555,0,0,1-37.284,44.34H62.28c-.756.036-1.512.06-2.28.06a45.00313,45.00313,0,0,1-7.716-89.34h.036c.756-.036,1.512-.06,2.28-.06a44.98562,44.98562,0,0,1,45,45Z" style="fill: #faa300"/>
    <path d="M99.804,22.59595l-6.78,6.78-3.096,3.096L29.376,93.024l-6.78,6.78A54.42023,54.42023,0,0,1,13.8,88.308,53.80039,53.80039,0,0,1,7.812,72.696,54.94484,54.94484,0,0,1,6.6,61.2,54.63072,54.63072,0,0,1,74.484,8.232a53.6595,53.6595,0,0,1,15.384,6.504A54.36778,54.36778,0,0,1,99.804,22.59595Z" style="fill: #fff;opacity: 0.14"/>
    <g transform="translate(35.000000,90.000000) scale(0.010000,-0.010000)"
fill="#000000" stroke="none">
<path d="M565 4925 c-79 -43 -86 -60 -101 -242 -23 -276 -58 -400 -198 -693
-51 -107 -105 -226 -119 -265 -106 -281 -156 -590 -143 -885 11 -264 50 -436
139 -610 l48 -95 34 -911 c26 -718 37 -919 48 -946 8 -20 32 -48 53 -64 32
-25 46 -29 100 -29 70 0 102 17 142 75 28 42 28 63 -2 885 -13 347 -22 632
-20 634 2 2 43 -17 91 -42 169 -87 349 -127 571 -127 358 0 680 86 916 244 38
25 70 45 72 44 1 -2 -40 -353 -91 -780 -73 -606 -91 -785 -84 -812 29 -106
148 -157 244 -103 77 43 72 18 187 975 56 474 105 862 108 862 3 0 52 -388
108 -862 115 -957 110 -932 187 -975 96 -54 215 -3 244 103 7 27 -11 206 -84
812 -51 427 -92 778 -91 779 2 2 40 -21 85 -51 230 -152 553 -236 903 -236
220 0 398 40 572 127 48 24 89 43 91 41 1 -2 -8 -286 -21 -633 -30 -823 -30
-843 -2 -885 40 -58 72 -75 142 -75 54 0 68 4 100 29 21 16 45 44 53 63 11 28
21 231 48 947 l34 911 48 95 c89 174 128 345 139 610 13 294 -32 578 -138 870
-16 47 -66 159 -110 250 -155 319 -196 464 -213 740 -9 135 -20 167 -71 206
-32 25 -46 29 -100 29 -70 0 -102 -17 -141 -75 -20 -29 -23 -45 -23 -143 0
-183 40 -402 110 -602 18 -49 74 -178 125 -285 124 -259 166 -384 207 -610 20
-116 17 -491 -5 -604 -56 -276 -218 -486 -461 -596 -126 -57 -172 -65 -401
-65 -230 1 -317 13 -498 74 -235 78 -423 251 -516 476 -19 45 -50 157 -72 264
-52 245 -55 255 -86 291 -82 98 -244 98 -326 0 -31 -36 -34 -46 -86 -291 -55
-261 -107 -377 -230 -511 -148 -162 -361 -258 -658 -298 -120 -17 -396 -8
-478 15 -148 41 -317 149 -405 259 -146 182 -199 367 -200 686 0 329 54 552
216 892 52 108 110 240 129 293 73 201 115 425 115 612 0 120 -12 151 -72 196
-37 27 -123 33 -163 12z"/>
</g>
  </g>
</svg>
